<?xml version="1.0" encoding="UTF-8"?>
<svg version="1.1" viewBox="0 0 49.868 13.057" xmlns="http://www.w3.org/2000/svg" xmlns:cc="http://creativecommons.org/ns#" xmlns:dc="http://purl.org/dc/elements/1.1/" xmlns:rdf="http://www.w3.org/1999/02/22-rdf-syntax-ns#">
 <metadata>
  <rdf:RDF>
   <cc:Work rdf:about="">
    <dc:format>image/svg+xml</dc:format>
    <dc:type rdf:resource="http://purl.org/dc/dcmitype/StillImage"/>
    <dc:title/>
   </cc:Work>
  </rdf:RDF>
 </metadata>
 <g transform="translate(-59.561 -89.212)">
  <g stroke-width=".26458" style="font-variant-caps:normal;font-variant-east-asian:normal;font-variant-ligatures:normal;font-variant-numeric:normal" aria-label="LOGO">
   <path d="m59.561 102.05v-12.523h2.5494v10.396h6.339v2.1273z" style="font-variant-caps:normal;font-variant-east-asian:normal;font-variant-ligatures:normal;font-variant-numeric:normal"/>
   <path d="m69.758 95.818q0-1.9293 0.57705-3.2384 0.43064-0.96463 1.1713-1.7312 0.74931-0.76653 1.6364-1.1369 1.1799-0.49954 2.7216-0.49954 2.7905 0 4.4614 1.7312 1.6795 1.7312 1.6795 4.8145 0 3.0575-1.6623 4.7887-1.6623 1.7226-4.4442 1.7226-2.8164 0-4.4786-1.7139-1.6623-1.7226-1.6623-4.737zm2.6269-0.08613q0 2.1446 0.99046 3.2556 0.99046 1.1024 2.5149 1.1024 1.5245 0 2.4977-1.0938 0.98185-1.1024 0.98185-3.2987 0-2.1704-0.95601-3.2384-0.9474-1.068-2.5235-1.068-1.5761 0-2.5408 1.0852-0.96463 1.0766-0.96463 3.2556z" style="font-variant-caps:normal;font-variant-east-asian:normal;font-variant-ligatures:normal;font-variant-numeric:normal"/>
   <path d="m89.86 97.411v-2.1273h5.4949v5.0298q-0.80098 0.77515-2.3254 1.3694-1.5158 0.58566-3.0747 0.58566-1.9809 0-3.4537-0.82682-1.4728-0.83544-2.2135-2.3771-0.7407-1.5503-0.7407-3.3676 0-1.9723 0.82682-3.5054 0.82682-1.5331 2.4202-2.3513 1.2144-0.62873 3.0231-0.62873 2.3513 0 3.669 0.99046 1.3264 0.98185 1.7053 2.7216l-2.5321 0.4737q-0.267-0.93018-1.0077-1.4642-0.73208-0.5426-1.8345-0.5426-1.6709 0-2.6613 1.0594-0.98185 1.0594-0.98185 3.1436 0 2.2479 0.99908 3.3762 0.99908 1.1197 2.6183 1.1197 0.80098 0 1.602-0.31006 0.8096-0.31867 1.3867-0.76653v-1.602z" style="font-variant-caps:normal;font-variant-east-asian:normal;font-variant-ligatures:normal;font-variant-numeric:normal"/>
   <path d="m97.181 95.818q0-1.9293 0.57705-3.2384 0.43064-0.96463 1.1713-1.7312 0.74931-0.76653 1.6364-1.1369 1.18-0.49954 2.7216-0.49954 2.7905 0 4.4614 1.7312 1.6795 1.7312 1.6795 4.8145 0 3.0575-1.6623 4.7887-1.6623 1.7226-4.4442 1.7226-2.8164 0-4.4786-1.7139-1.6623-1.7226-1.6623-4.737zm2.6269-0.08613q0 2.1446 0.99046 3.2556 0.99047 1.1024 2.5149 1.1024 1.5245 0 2.4977-1.0938 0.98185-1.1024 0.98185-3.2987 0-2.1704-0.95601-3.2384-0.9474-1.068-2.5235-1.068-1.5761 0-2.5408 1.0852-0.96463 1.0766-0.96463 3.2556z" style="font-variant-caps:normal;font-variant-east-asian:normal;font-variant-ligatures:normal;font-variant-numeric:normal"/>
  </g>
 </g>
</svg>
